<svg width="1521" height="1587" viewBox="0 0 1520 1300" fill="none" xmlns="http://www.w3.org/2000/svg">
<circle cx="783" cy="646" r="50" fill="#2251FF" opacity='0.5'/>
<circle cx="51" cy="50" r="50" fill="#2251FF" opacity='0.5'/>
<circle cx="783" cy="271" r="50" fill="#2251FF" opacity='0.5'/>
<circle cx="1471" cy="446" r="50" fill="#2251FF" opacity='0.5'/>
<path d="M50 99.5C50.0001 250 53.5 279 734.5 279M833 279C1473 279 1465.5 279 1465.5 395" stroke="#051C2C" stroke-width="3" opacity='0.5'/>
<path d="M1469.5 496C1469.5 680.687 1512.74 653.196 831.498 653.196M730.498 653.196C90.2751 653.196 52.5 674.696 52.5 790.5" stroke="#051C2C" stroke-width="3" opacity='0.5'/>
<circle cx="50" cy="841" r="50" fill="#2251FF" opacity='0.5'/>
<circle cx="782" cy="1062" r="50" fill="#2251FF" opacity='0.5'/>
<circle cx="1470" cy="1237" r="50" fill="#2251FF" opacity='0.5'/>
<path d="M52.5 885C52.5001 1090 52.5 1070 733.5 1070M832 1070C1472 1070 1464.5 1070 1464.5 1186" stroke="#051C2C" stroke-width="3" opacity='0.5'/>
</svg>
